<svg id="Capa_1" data-name="Capa 1" xmlns="http://www.w3.org/2000/svg" viewBox="0 0 87.94 79.47"><title>camera</title><path d="M274.08,267.05a12.67,12.67,0,1,0,8.94,3.71A12.18,12.18,0,0,0,274.08,267.05Z" transform="translate(-231.91 -237.54)" style="fill:#fff"/><path d="M292,307.95a17.88,17.88,0,0,1,24.2-16.76V260A11.25,11.25,0,0,0,305,248.78h-9.84l-2.24-6a8.16,8.16,0,0,0-3.05-3.71,7.82,7.82,0,0,0-4.55-1.56H262.84a7.82,7.82,0,0,0-4.55,1.56,8.16,8.16,0,0,0-3.05,3.71l-2.24,6h-9.84A11.25,11.25,0,0,0,231.91,260v39.36a11.25,11.25,0,0,0,11.25,11.25h49.11A18,18,0,0,1,292,307.95Zm-18-8.56a19.72,19.72,0,1,1,13.9-5.78A19,19,0,0,1,274.08,299.39Z" transform="translate(-231.91 -237.54)" style="fill:#fff"/><path d="M319.86,304.11v6H313V317h-6v-6.88h-6.88v-6H307v-6.88h6v6.88Z" transform="translate(-231.91 -237.54)" style="fill:#fff"/></svg>