<svg id="Layer_1" data-name="Layer 1" xmlns="http://www.w3.org/2000/svg" xmlns:xlink="http://www.w3.org/1999/xlink" viewBox="0 0 101.08 73.36"><defs><clipPath id="clip-path" transform="translate(-370.41 -260.96)"><path d="M406.27,274a4.9,4.9,0,0,1,4.88-4.89h19.59a4.89,4.89,0,0,1,4.88,4.89v47.28a4.9,4.9,0,0,1-4.88,4.89H411.15a4.89,4.89,0,0,1-4.88-4.89Z" style="fill:none;clip-rule:evenodd"/></clipPath><clipPath id="clip-path-2" transform="translate(-370.41 -260.96)"><path d="M438.88,278.88a4.89,4.89,0,0,1,4.89-4.88h14.67a4.89,4.89,0,0,1,4.89,4.88V316.4a4.89,4.89,0,0,1-4.89,4.88H443.77a4.89,4.89,0,0,1-4.89-4.88Z" style="fill:none;clip-rule:evenodd"/></clipPath><clipPath id="clip-path-3" transform="translate(-370.41 -260.96)"><path d="M378.56,278.88a4.89,4.89,0,0,1,4.89-4.88h14.67a4.89,4.89,0,0,1,4.89,4.88V316.4a4.89,4.89,0,0,1-4.89,4.88H383.45a4.89,4.89,0,0,1-4.89-4.88Z" style="fill:none;clip-rule:evenodd"/></clipPath></defs><title>modules_icon</title><g style="clip-path:url(#clip-path)"><rect x="27.72" width="45.65" height="73.36" style="fill:#feba00"/></g><g style="clip-path:url(#clip-path-2)"><rect x="60.32" y="4.89" width="40.76" height="63.58" style="fill:#feba00"/></g><g style="clip-path:url(#clip-path-3)"><rect y="4.89" width="40.76" height="63.58" style="fill:#feba00"/></g></svg>